<?xml version="1.0" standalone="no"?>
<!DOCTYPE svg PUBLIC "-//W3C//DTD SVG 20010904//EN"
 "http://www.w3.org/TR/2001/REC-SVG-20010904/DTD/svg10.dtd">
<svg version="1.0" xmlns="http://www.w3.org/2000/svg"
 width="1350.000000pt" height="900.000000pt" viewBox="0 0 1350.000000 900.000000"
 preserveAspectRatio="xMidYMid meet">
<metadata>
Created by potrace 1.16, written by Peter Selinger 2001-2019
</metadata>
<g transform="translate(0.000000,900.000000) scale(0.100000,-0.100000)"
fill="#000000" stroke="none">
<path d="M0 4500 l0 -4500 6750 0 6750 0 0 4500 0 4500 -6750 0 -6750 0 0
-4500z m6873 3740 c24 -101 40 -140 73 -178 l36 -42 144 0 c92 0 144 -4 144
-10 0 -6 -35 -33 -77 -60 -137 -86 -163 -109 -163 -142 0 -17 9 -45 19 -62 21
-34 51 -128 51 -159 0 -12 -5 -17 -14 -14 -16 7 -86 52 -170 111 -37 26 -133
19 -164 -12 -12 -12 -27 -22 -32 -22 -6 0 -33 -16 -60 -35 -27 -19 -58 -35
-69 -35 -18 0 -18 3 5 76 13 42 30 87 39 100 22 34 19 77 -7 101 -13 11 -48
36 -78 55 -30 19 -74 46 -97 61 -24 15 -43 32 -43 37 0 6 54 10 139 10 124 0
141 2 164 20 36 29 63 76 77 140 23 101 65 132 83 60z m-2129 -422 c4 -29 16
-68 26 -88 11 -19 26 -52 34 -73 9 -23 25 -41 41 -47 15 -6 87 -10 161 -10
156 0 166 -8 74 -58 -33 -18 -62 -37 -65 -42 -3 -5 -22 -17 -42 -26 -74 -36
-76 -99 -10 -247 18 -41 27 -71 21 -77 -8 -8 -54 16 -124 67 -56 42 -117 73
-140 73 -34 0 -92 -30 -175 -90 -38 -27 -76 -50 -84 -50 -21 0 -6 73 29 146
17 33 30 73 30 88 0 30 -42 77 -95 108 -86 50 -145 90 -145 99 0 5 62 9 138 9
89 0 146 5 162 13 36 18 65 68 79 133 11 57 56 138 71 129 4 -2 10 -28 14 -57z
m4189 -1 c15 -29 27 -61 27 -72 1 -33 36 -100 65 -123 25 -20 39 -22 166 -22
152 0 167 -7 103 -47 -20 -13 -39 -23 -43 -23 -4 0 -16 -9 -26 -20 -10 -11
-23 -20 -30 -20 -6 0 -30 -14 -53 -31 -39 -29 -42 -34 -42 -79 0 -36 5 -54 20
-68 11 -10 24 -38 29 -63 5 -24 13 -54 16 -66 10 -33 -23 -44 -43 -15 -8 12
-19 22 -25 22 -12 0 -79 43 -112 71 -11 10 -40 20 -65 24 -43 6 -49 4 -141
-57 -136 -89 -140 -91 -152 -79 -7 7 -2 22 16 48 14 21 28 56 32 78 3 22 13
57 22 77 15 37 15 39 -11 78 -14 22 -41 46 -59 53 -17 8 -38 21 -46 30 -7 10
-19 17 -25 17 -19 0 -87 51 -81 61 4 5 68 9 143 9 89 0 145 5 160 13 26 13 72
109 97 200 8 31 19 57 24 57 4 0 20 -24 34 -53z m1682 -654 c14 -27 31 -70 36
-97 11 -61 30 -91 72 -116 28 -17 51 -20 170 -20 75 0 137 -4 137 -8 0 -5 -15
-16 -32 -25 -73 -38 -148 -83 -180 -109 -29 -24 -33 -33 -32 -72 0 -26 9 -57
20 -73 36 -54 57 -153 32 -153 -7 1 -31 14 -53 30 -22 16 -51 34 -65 40 -14 6
-35 21 -47 32 -14 13 -40 23 -70 25 -40 4 -55 0 -86 -21 -21 -14 -42 -26 -47
-26 -5 0 -21 -10 -37 -22 -15 -13 -38 -29 -51 -35 -12 -7 -31 -18 -42 -25 -32
-20 -35 0 -8 55 28 55 58 151 58 183 0 29 -24 59 -76 93 -25 17 -48 31 -51 31
-11 0 -103 64 -103 72 0 4 60 8 133 8 86 0 141 5 157 13 30 15 105 154 114
211 6 38 13 56 21 56 2 0 15 -21 30 -47z m-7556 -10 c5 -27 25 -82 45 -124 43
-95 52 -99 227 -99 71 0 129 -4 129 -8 0 -8 -92 -72 -103 -72 -20 0 -107 -67
-117 -90 -16 -40 4 -141 43 -212 24 -42 29 -60 21 -68 -9 -9 -27 0 -70 33 -33
24 -88 60 -124 79 -58 31 -69 34 -105 26 -37 -8 -152 -77 -202 -121 -12 -10
-26 -16 -32 -12 -17 10 -2 86 26 126 32 49 43 138 18 162 -21 22 -91 69 -132
90 -81 42 -93 49 -93 58 0 5 60 9 138 9 138 0 139 0 180 30 40 29 46 40 68
135 11 47 43 105 58 105 9 0 18 -18 25 -47z m2527 -450 c3 -27 17 -68 29 -93
13 -25 28 -57 34 -72 20 -53 52 -63 195 -63 109 0 131 -3 134 -15 1 -9 -9 -21
-25 -28 -15 -7 -46 -23 -68 -37 -22 -13 -54 -31 -71 -40 -17 -9 -40 -31 -50
-50 -17 -33 -17 -35 6 -107 13 -40 34 -93 47 -118 13 -25 23 -48 23 -52 0 -13
-20 -9 -48 11 -131 90 -203 131 -232 131 -29 0 -89 -24 -100 -40 -3 -4 -21
-17 -40 -29 -75 -45 -111 -62 -119 -56 -12 7 10 88 37 142 26 49 28 100 7 130
-15 22 -185 123 -206 123 -6 0 -9 8 -7 18 3 15 15 17 98 14 132 -5 171 3 214
41 30 27 38 43 50 99 13 64 54 138 76 138 5 0 12 -21 16 -47z m2604 5 c6 -24
22 -65 35 -93 13 -27 27 -63 32 -80 13 -47 81 -67 205 -60 94 5 128 1 128 -15
0 -8 -84 -60 -166 -103 -53 -29 -69 -68 -54 -136 7 -31 25 -79 41 -107 32 -56
37 -94 15 -94 -8 0 -18 5 -21 10 -6 9 -32 28 -106 75 -9 5 -35 22 -57 38 -70
46 -95 40 -242 -57 -46 -31 -88 -56 -92 -56 -23 0 -17 38 15 103 20 40 38 88
40 107 9 72 -10 92 -166 179 -32 18 -56 38 -54 45 3 7 35 10 104 8 157 -5 222
22 244 101 22 78 64 177 76 177 7 0 17 -19 23 -42z m-1322 5 c6 -16 15 -50 22
-78 13 -57 37 -99 75 -135 26 -24 31 -25 155 -23 102 2 131 -1 140 -12 10 -12
7 -18 -21 -30 -19 -8 -43 -21 -54 -28 -164 -100 -176 -117 -134 -199 21 -41
61 -170 54 -176 -5 -5 -103 46 -110 58 -4 6 -17 16 -28 21 -12 5 -37 21 -56
34 -52 38 -93 33 -171 -19 -53 -36 -177 -106 -187 -106 -1 0 6 15 17 33 10 17
24 52 30 77 7 25 21 62 31 82 26 51 24 80 -8 109 -33 30 -106 79 -117 79 -4 0
-27 12 -52 26 -37 22 -43 29 -32 41 9 11 28 13 90 8 42 -4 103 -3 133 0 50 7
59 12 91 50 23 28 42 68 55 116 11 41 25 79 31 86 17 21 35 15 46 -14z m4947
-790 c10 -60 25 -100 41 -114 8 -6 19 -31 25 -55 19 -73 31 -79 195 -82 79 -2
144 -7 144 -12 0 -8 -58 -47 -90 -61 -24 -10 -93 -56 -111 -74 -37 -36 -24
-143 27 -231 33 -57 20 -99 -18 -60 -8 7 -27 21 -43 30 -17 9 -61 37 -100 61
-38 25 -79 45 -90 45 -26 -1 -65 -22 -169 -93 -47 -32 -90 -55 -96 -52 -14 9
-3 48 38 133 49 103 37 161 -43 199 -29 14 -71 38 -134 78 -17 10 -31 23 -31
27 0 4 62 8 138 8 182 0 207 14 232 125 12 53 61 165 72 165 4 0 10 -17 13
-37z m-9956 -39 c17 -36 31 -74 31 -84 0 -38 23 -80 59 -104 35 -25 43 -26
167 -26 72 0 134 -3 137 -7 9 -8 -30 -34 -153 -102 -89 -49 -101 -97 -51 -204
38 -80 48 -127 28 -127 -16 0 -147 84 -157 100 -10 16 -94 41 -118 35 -12 -3
-48 -22 -78 -43 -183 -121 -216 -131 -164 -46 12 18 32 65 45 105 24 71 25
108 2 137 -12 15 -111 82 -121 82 -12 0 -86 53 -86 61 0 5 57 9 128 10 70 1
138 4 152 8 28 7 78 98 105 191 24 81 24 80 34 80 5 0 23 -30 40 -66z m4993
-781 c40 -89 79 -183 97 -233 9 -25 24 -56 34 -70 25 -36 22 -40 -33 -40 -37
0 -55 -5 -70 -20 -20 -20 -20 -33 -20 -747 0 -807 -4 -763 66 -763 39 0 28 -9
329 265 48 44 93 82 99 84 6 2 18 11 26 21 8 9 65 59 125 110 61 52 121 104
135 117 14 13 42 38 63 56 21 17 68 59 105 92 37 33 121 105 186 160 151 128
175 169 116 203 -16 9 -30 20 -30 24 0 10 62 45 100 56 19 5 72 26 117 46 45
20 89 36 98 36 10 0 32 9 49 19 37 22 96 37 96 23 0 -13 -107 -218 -137 -262
-12 -19 -23 -41 -23 -48 0 -7 -7 -26 -15 -42 -19 -38 -53 -39 -83 -5 -12 14
-31 25 -43 25 -18 0 -69 -32 -109 -70 -66 -61 -191 -171 -247 -217 -38 -30
-75 -63 -84 -72 -19 -19 -45 -42 -193 -171 -60 -52 -135 -117 -166 -145 -32
-27 -76 -66 -100 -85 -23 -19 -74 -64 -114 -100 -40 -36 -101 -90 -136 -120
-145 -124 -154 -135 -154 -175 0 -33 7 -44 56 -89 30 -28 70 -62 88 -76 19
-14 45 -37 59 -51 14 -14 78 -70 141 -124 63 -54 124 -106 135 -116 78 -71
290 -256 388 -339 16 -14 39 -34 51 -45 22 -22 230 -201 257 -223 9 -6 67 -21
130 -32 123 -22 140 -31 231 -115 30 -28 79 -69 110 -93 93 -71 89 -92 -17
-92 -40 0 -81 -3 -90 -6 -29 -12 -45 -60 -45 -139 0 -43 -4 -75 -10 -75 -5 0
-34 21 -63 48 -29 26 -102 89 -160 140 -59 52 -107 97 -107 100 0 4 -5 36 -11
72 -12 78 -61 162 -119 205 -22 17 -59 47 -83 68 -23 21 -66 60 -96 85 -29 26
-79 70 -110 98 -31 28 -99 88 -151 132 -53 44 -110 94 -127 111 -17 17 -35 31
-40 31 -5 0 -20 12 -34 28 -14 15 -56 54 -94 87 -38 33 -94 82 -124 110 -63
55 -61 54 -116 96 -31 24 -46 29 -69 25 -59 -12 -56 28 -56 -683 0 -443 4
-668 11 -698 7 -26 29 -65 55 -96 75 -87 75 -87 72 -291 -2 -120 -7 -183 -14
-185 -6 -2 -39 21 -73 52 -77 68 -114 73 -179 23 -23 -18 -42 -36 -42 -40 0
-7 -52 -38 -65 -38 -3 0 -5 87 -5 194 l0 193 51 64 c100 125 92 54 92 791 0
707 1 689 -57 700 -31 6 -65 -14 -126 -73 -24 -24 -61 -57 -81 -74 -64 -51
-243 -206 -264 -229 -12 -11 -48 -43 -80 -71 -33 -27 -131 -113 -219 -190 -87
-77 -177 -155 -199 -173 -63 -51 -136 -121 -146 -140 -5 -9 -14 -44 -21 -77
-25 -124 -14 -110 -282 -343 -28 -24 -55 -41 -61 -39 -7 2 -15 34 -18 71 -5
58 -10 72 -38 99 -30 30 -35 32 -108 32 -98 0 -105 15 -33 71 48 36 92 73 130
107 8 7 37 33 64 58 48 44 49 44 140 51 112 8 130 17 267 133 148 128 411 359
491 433 37 34 71 62 75 62 5 0 26 18 49 39 22 22 79 73 126 113 46 40 116 100
153 133 38 33 77 67 88 75 38 31 97 96 103 112 7 25 -15 62 -59 97 -22 17 -68
56 -103 88 -35 32 -85 76 -111 99 -27 23 -91 79 -143 125 -52 46 -122 106
-155 133 -33 27 -64 55 -70 61 -5 7 -48 44 -95 84 -47 40 -89 78 -95 84 -9 11
-66 60 -152 131 -14 11 -53 46 -87 76 -222 197 -224 199 -263 200 -14 0 -31
-12 -45 -30 -12 -16 -25 -30 -30 -30 -12 0 -76 102 -83 133 -4 14 -15 33 -26
43 -10 9 -24 34 -29 55 -6 21 -22 52 -36 68 -14 17 -26 43 -27 58 -3 38 25 41
84 10 25 -14 61 -28 79 -32 18 -4 53 -18 79 -30 25 -13 76 -33 113 -45 77 -26
91 -45 54 -77 -14 -12 -26 -27 -26 -33 0 -28 34 -71 102 -127 91 -76 245 -210
379 -328 56 -49 132 -115 168 -145 59 -49 288 -250 396 -349 93 -84 132 -111
163 -111 28 0 61 21 62 38 1 15 1 1398 1 1415 -2 34 -38 57 -91 57 -52 0 -62
10 -36 39 14 17 52 104 91 207 12 34 30 72 39 85 9 13 16 33 16 44 0 27 20 47
35 35 6 -5 23 -35 37 -67z m-5643 -811 c10 -20 22 -60 26 -87 6 -40 16 -58 50
-92 l42 -43 142 0 c77 0 141 -4 141 -8 0 -17 -85 -81 -141 -106 -77 -34 -107
-86 -84 -147 7 -19 25 -63 40 -97 30 -71 28 -97 -7 -86 -13 4 -34 15 -48 26
-112 87 -133 98 -183 98 -40 0 -61 -7 -106 -36 -31 -21 -67 -47 -81 -59 -27
-24 -90 -49 -99 -40 -3 4 4 25 16 48 37 71 74 181 69 203 -10 39 -46 72 -118
109 -78 39 -121 72 -112 86 3 5 63 9 134 9 71 0 140 4 155 10 14 5 32 24 40
42 8 18 23 47 35 63 11 17 20 40 20 53 0 30 26 92 39 92 6 0 19 -17 30 -38z
m11262 -29 c19 -69 61 -150 91 -175 17 -15 41 -18 159 -18 76 0 140 -4 143 -9
9 -14 -47 -57 -119 -91 -66 -31 -101 -65 -111 -107 -4 -13 -2 -29 4 -36 5 -6
15 -36 21 -65 6 -30 22 -68 36 -86 24 -31 31 -57 20 -68 -8 -7 -65 23 -112 58
-88 68 -121 84 -173 84 -51 0 -75 -13 -175 -93 -36 -29 -71 -41 -79 -28 -10
16 15 104 37 128 12 14 22 42 25 74 5 51 4 53 -38 90 -24 22 -48 39 -54 39
-22 0 -136 85 -136 102 0 4 63 8 140 8 l139 0 35 31 c23 20 38 43 42 67 16 85
55 167 77 159 7 -2 19 -31 28 -64z"/>
</g>
</svg>
